<svg width="1152" height="448" viewBox="0 0 1152 448" fill="none" xmlns="http://www.w3.org/2000/svg">
<path fill-rule="evenodd" clip-rule="evenodd" d="M1152 0H0V0.0720749H1152V0ZM1152 41.0721H1025.33C1014.31 41.0721 989.087 49.6165 959.873 59.513C909.759 76.489 847.902 97.4432 825.849 86.0721C790.94 68.0721 638.338 63.0722 575.501 86.0721C537.467 99.9936 476.412 88.6357 427.283 79.4963C395.244 73.5363 368.277 68.5198 356.073 72.0722C325.153 81.0722 194.494 88.0722 176.54 63.0722C162.178 43.0722 52.8623 39.4055 0 40.0722V448H1152V41.0721Z" fill="#E4582D"/>
<mask id="mask0_685_15422" style="mask-type:alpha" maskUnits="userSpaceOnUse" x="0" y="0" width="1152" height="448">
<path fill-rule="evenodd" clip-rule="evenodd" d="M1152 0H0V0.0720749H1152V0ZM1152 41.0721H1025.33C1014.31 41.0721 989.087 49.6165 959.873 59.513C909.759 76.489 847.902 97.4432 825.849 86.0721C790.94 68.0721 638.338 63.0722 575.501 86.0721C537.467 99.9936 476.412 88.6357 427.283 79.4963C395.244 73.5363 368.277 68.5198 356.073 72.0722C325.153 81.0722 194.494 88.0722 176.54 63.0722C162.178 43.0722 52.8623 39.4055 0 40.0722V448H1152V41.0721Z" fill="#E4582D"/>
</mask>
<g mask="url(#mask0_685_15422)">
<path opacity="0.4" fill-rule="evenodd" clip-rule="evenodd" d="M854 406.891C854 562.42 729.745 688.477 576.5 688.477C423.255 688.477 299 562.42 299 406.891C299 251.362 423.255 125.306 576.5 125.306C729.745 125.306 854 251.362 854 406.891ZM855 406.891C855 562.959 730.311 689.477 576.5 689.477C422.689 689.477 298 562.959 298 406.891C298 250.824 422.689 124.306 576.5 124.306C730.311 124.306 855 250.824 855 406.891ZM576.5 617.45C691.085 617.45 784 523.193 784 406.891C784 290.589 691.085 196.333 576.5 196.333C461.915 196.333 369 290.589 369 406.891C369 523.193 461.915 617.45 576.5 617.45ZM576.5 618.45C691.651 618.45 785 523.732 785 406.891C785 290.051 691.651 195.333 576.5 195.333C461.349 195.333 368 290.051 368 406.891C368 523.732 461.349 618.45 576.5 618.45ZM576.5 547.438C652.978 547.438 715 484.527 715 406.891C715 329.256 652.978 266.345 576.5 266.345C500.022 266.345 438 329.256 438 406.891C438 484.527 500.022 547.438 576.5 547.438ZM576.5 548.438C653.544 548.438 716 485.065 716 406.891C716 328.717 653.544 265.345 576.5 265.345C499.456 265.345 437 328.717 437 406.891C437 485.065 499.456 548.438 576.5 548.438Z" fill="#ECBA41"/>
<path d="M459.073 237.588C458.865 237.252 458.569 236.996 458.185 236.82C457.801 236.628 457.337 236.532 456.793 236.532C455.769 236.532 454.977 236.868 454.417 237.54C453.857 238.196 453.577 239.1 453.577 240.252C453.577 241.58 453.889 242.572 454.513 243.228C455.137 243.884 456.097 244.212 457.393 244.212C458.625 244.212 459.617 243.716 460.369 242.724H456.121V238.956H464.785V244.284C464.049 245.548 463.033 246.636 461.737 247.548C460.441 248.444 458.801 248.892 456.817 248.892C455.057 248.892 453.521 248.532 452.209 247.812C450.913 247.076 449.913 246.052 449.209 244.74C448.521 243.428 448.177 241.932 448.177 240.252C448.177 238.572 448.521 237.076 449.209 235.764C449.913 234.452 450.913 233.436 452.209 232.716C453.505 231.98 455.025 231.612 456.769 231.612C458.993 231.612 460.801 232.148 462.193 233.22C463.601 234.292 464.433 235.748 464.689 237.588H459.073ZM474.984 248.94C473.384 248.94 471.912 248.564 470.568 247.812C469.24 247.06 468.184 246.02 467.4 244.692C466.616 243.364 466.224 241.868 466.224 240.204C466.224 238.54 466.616 237.044 467.4 235.716C468.184 234.388 469.24 233.356 470.568 232.62C471.912 231.868 473.384 231.492 474.984 231.492C476.584 231.492 478.048 231.868 479.376 232.62C480.704 233.356 481.752 234.388 482.52 235.716C483.304 237.044 483.696 238.54 483.696 240.204C483.696 241.868 483.304 243.364 482.52 244.692C481.752 246.02 480.696 247.06 479.352 247.812C478.024 248.564 476.568 248.94 474.984 248.94ZM474.984 243.972C476.04 243.972 476.856 243.636 477.432 242.964C478.008 242.276 478.296 241.356 478.296 240.204C478.296 239.036 478.008 238.116 477.432 237.444C476.856 236.756 476.04 236.412 474.984 236.412C473.912 236.412 473.088 236.756 472.512 237.444C471.936 238.116 471.648 239.036 471.648 240.204C471.648 241.356 471.936 242.276 472.512 242.964C473.088 243.636 473.912 243.972 474.984 243.972ZM498.962 231.78V236.004H494.45V248.772H489.122V236.004H484.658V231.78H498.962ZM515.381 246.204H509.717L508.877 248.772H503.285L509.501 231.78H515.645L521.837 248.772H516.221L515.381 246.204ZM514.085 242.196L512.549 237.468L511.013 242.196H514.085ZM539.344 248.772H534.016L528.376 240.228V248.772H523.048V231.78H528.376L534.016 240.468V231.78H539.344V248.772ZM558.071 231.78L551.975 243.612V248.772H546.647V243.612L540.551 231.78H546.647L549.359 237.804L552.071 231.78H558.071ZM575.36 231.78V236.004H568.688V238.356H573.488V242.364H568.688V248.772H563.36V231.78H575.36ZM582.493 236.028V238.116H587.773V242.124H582.493V244.524H588.493V248.772H577.165V231.78H588.493V236.028H582.493ZM595.829 236.028V238.116H601.109V242.124H595.829V244.524H601.829V248.772H590.501V231.78H601.829V236.028H595.829ZM610.917 231.78C612.693 231.78 614.245 232.14 615.573 232.86C616.917 233.58 617.949 234.58 618.669 235.86C619.389 237.14 619.749 238.596 619.749 240.228C619.749 241.844 619.389 243.3 618.669 244.596C617.949 245.892 616.917 246.916 615.573 247.668C614.245 248.404 612.693 248.772 610.917 248.772H603.837V231.78H610.917ZM610.437 244.02C611.637 244.02 612.589 243.692 613.293 243.036C613.997 242.38 614.349 241.444 614.349 240.228C614.349 239.012 613.997 238.076 613.293 237.42C612.589 236.764 611.637 236.436 610.437 236.436H609.165V244.02H610.437ZM633.049 240.06C634.073 240.3 634.865 240.796 635.425 241.548C636.001 242.284 636.289 243.14 636.289 244.116C636.289 245.604 635.793 246.756 634.801 247.572C633.825 248.372 632.417 248.772 630.577 248.772H621.673V231.78H630.337C632.065 231.78 633.425 232.156 634.417 232.908C635.409 233.66 635.905 234.756 635.905 236.196C635.905 237.188 635.641 238.028 635.113 238.716C634.601 239.388 633.913 239.836 633.049 240.06ZM627.001 238.404H629.065C629.545 238.404 629.897 238.308 630.121 238.116C630.361 237.924 630.481 237.628 630.481 237.228C630.481 236.812 630.361 236.508 630.121 236.316C629.897 236.108 629.545 236.004 629.065 236.004H627.001V238.404ZM629.425 244.5C629.905 244.5 630.257 244.412 630.481 244.236C630.721 244.044 630.841 243.74 630.841 243.324C630.841 242.508 630.369 242.1 629.425 242.1H627.001V244.5H629.425ZM648.975 246.204H643.311L642.471 248.772H636.879L643.095 231.78H649.239L655.431 248.772H649.815L648.975 246.204ZM647.679 242.196L646.143 237.468L644.607 242.196H647.679ZM656.161 240.252C656.161 238.572 656.497 237.076 657.169 235.764C657.857 234.452 658.833 233.436 660.097 232.716C661.361 231.98 662.849 231.612 664.561 231.612C666.033 231.612 667.345 231.892 668.497 232.452C669.665 232.996 670.609 233.772 671.329 234.78C672.065 235.788 672.553 236.964 672.793 238.308H667.177C666.921 237.748 666.553 237.316 666.073 237.012C665.609 236.692 665.073 236.532 664.465 236.532C663.569 236.532 662.857 236.868 662.329 237.54C661.817 238.212 661.561 239.116 661.561 240.252C661.561 241.388 661.817 242.292 662.329 242.964C662.857 243.636 663.569 243.972 664.465 243.972C665.073 243.972 665.609 243.82 666.073 243.516C666.553 243.196 666.921 242.756 667.177 242.196H672.793C672.553 243.54 672.065 244.716 671.329 245.724C670.609 246.732 669.665 247.516 668.497 248.076C667.345 248.62 666.033 248.892 664.561 248.892C662.849 248.892 661.361 248.532 660.097 247.812C658.833 247.076 657.857 246.052 657.169 244.74C656.497 243.428 656.161 241.932 656.161 240.252ZM684.984 248.772L680.04 241.404V248.772H674.712V231.78H680.04V238.932L684.912 231.78H690.936L685.08 239.916L691.32 248.772H684.984ZM698.157 230.22C699.933 230.22 701.357 230.668 702.429 231.564C703.517 232.444 704.061 233.74 704.061 235.452C704.061 236.86 703.581 237.996 702.621 238.86C701.677 239.724 700.437 240.172 698.901 240.204L698.757 241.908H694.053L693.909 236.82H695.925C696.869 236.82 697.589 236.716 698.085 236.508C698.597 236.3 698.853 235.964 698.853 235.5C698.853 235.196 698.773 234.964 698.613 234.804C698.469 234.628 698.269 234.54 698.013 234.54C697.693 234.54 697.453 234.644 697.293 234.852C697.149 235.044 697.077 235.3 697.077 235.62H692.061C692.013 234.628 692.205 233.724 692.637 232.908C693.085 232.092 693.773 231.444 694.701 230.964C695.629 230.468 696.781 230.22 698.157 230.22ZM696.477 248.964C695.549 248.964 694.805 248.716 694.245 248.22C693.685 247.724 693.405 247.1 693.405 246.348C693.405 245.58 693.685 244.948 694.245 244.452C694.805 243.94 695.549 243.684 696.477 243.684C697.389 243.684 698.125 243.94 698.685 244.452C699.245 244.948 699.525 245.58 699.525 246.348C699.525 247.1 699.245 247.724 698.685 248.22C698.125 248.716 697.389 248.964 696.477 248.964Z" fill="white"/>
<path d="M446.16 277.743L442.938 290.433H440.94L438.006 280.065L435.072 290.433H433.074L429.834 277.743H431.652L434.082 288.525L437.088 277.743H438.906L441.912 288.489L444.36 277.743H446.16ZM457.17 284.943C457.17 285.291 457.146 285.591 457.098 285.843H449.196C449.232 286.971 449.55 287.817 450.15 288.381C450.762 288.945 451.506 289.227 452.382 289.227C453.174 289.227 453.834 289.029 454.362 288.633C454.902 288.225 455.232 287.685 455.352 287.013H457.098C456.978 287.697 456.708 288.309 456.288 288.849C455.88 289.389 455.346 289.809 454.686 290.109C454.026 290.409 453.282 290.559 452.454 290.559C451.506 290.559 450.666 290.355 449.934 289.947C449.202 289.539 448.626 288.957 448.206 288.201C447.798 287.433 447.594 286.533 447.594 285.501C447.594 284.469 447.798 283.569 448.206 282.801C448.626 282.033 449.202 281.445 449.934 281.037C450.666 280.629 451.506 280.425 452.454 280.425C453.414 280.425 454.248 280.629 454.956 281.037C455.676 281.445 456.222 281.991 456.594 282.675C456.978 283.359 457.17 284.115 457.17 284.943ZM455.514 285.051C455.55 284.319 455.43 283.707 455.154 283.215C454.878 282.723 454.5 282.357 454.02 282.117C453.54 281.877 453.018 281.757 452.454 281.757C451.554 281.757 450.798 282.039 450.186 282.603C449.574 283.155 449.244 283.971 449.196 285.051H455.514ZM460.338 276.249C460.47 276.825 460.536 277.377 460.536 277.905C460.536 278.577 460.38 279.087 460.068 279.435C459.768 279.771 459.318 279.939 458.718 279.939V279.201C459.03 279.201 459.252 279.123 459.384 278.967C459.516 278.799 459.582 278.547 459.582 278.211V277.797H458.682V276.249H460.338ZM466.561 280.425C467.521 280.425 468.331 280.665 468.991 281.145C469.663 281.625 470.131 282.267 470.395 283.071V277.113H472.033V290.433H470.395V287.913C470.131 288.717 469.663 289.359 468.991 289.839C468.331 290.319 467.521 290.559 466.561 290.559C465.685 290.559 464.905 290.355 464.221 289.947C463.537 289.539 462.997 288.957 462.601 288.201C462.217 287.433 462.025 286.533 462.025 285.501C462.025 284.469 462.217 283.569 462.601 282.801C462.997 282.033 463.537 281.445 464.221 281.037C464.905 280.629 465.685 280.425 466.561 280.425ZM467.029 281.883C466.021 281.883 465.211 282.207 464.599 282.855C463.999 283.491 463.699 284.373 463.699 285.501C463.699 286.629 463.999 287.517 464.599 288.165C465.211 288.801 466.021 289.119 467.029 289.119C467.677 289.119 468.253 288.969 468.757 288.669C469.273 288.369 469.675 287.949 469.963 287.409C470.251 286.857 470.395 286.221 470.395 285.501C470.395 284.781 470.251 284.145 469.963 283.593C469.675 283.041 469.273 282.621 468.757 282.333C468.253 282.033 467.677 281.883 467.029 281.883ZM480.725 282.549C481.049 281.865 481.523 281.337 482.147 280.965C482.771 280.581 483.515 280.389 484.379 280.389V282.171H483.875C482.951 282.171 482.195 282.411 481.607 282.891C481.019 283.359 480.725 284.139 480.725 285.231V290.433H479.087V280.551H480.725V282.549ZM495.086 284.943C495.086 285.291 495.062 285.591 495.014 285.843H487.112C487.148 286.971 487.466 287.817 488.066 288.381C488.678 288.945 489.422 289.227 490.298 289.227C491.09 289.227 491.75 289.029 492.278 288.633C492.818 288.225 493.148 287.685 493.268 287.013H495.014C494.894 287.697 494.624 288.309 494.204 288.849C493.796 289.389 493.262 289.809 492.602 290.109C491.942 290.409 491.198 290.559 490.37 290.559C489.422 290.559 488.582 290.355 487.85 289.947C487.118 289.539 486.542 288.957 486.122 288.201C485.714 287.433 485.51 286.533 485.51 285.501C485.51 284.469 485.714 283.569 486.122 282.801C486.542 282.033 487.118 281.445 487.85 281.037C488.582 280.629 489.422 280.425 490.37 280.425C491.33 280.425 492.164 280.629 492.872 281.037C493.592 281.445 494.138 281.991 494.51 282.675C494.894 283.359 495.086 284.115 495.086 284.943ZM493.43 285.051C493.466 284.319 493.346 283.707 493.07 283.215C492.794 282.723 492.416 282.357 491.936 282.117C491.456 281.877 490.934 281.757 490.37 281.757C489.47 281.757 488.714 282.039 488.102 282.603C487.49 283.155 487.16 283.971 487.112 285.051H493.43ZM501.278 280.425C502.238 280.425 503.048 280.665 503.708 281.145C504.38 281.625 504.848 282.267 505.112 283.071V280.551H506.75V290.433H505.112V287.913C504.848 288.717 504.38 289.359 503.708 289.839C503.048 290.319 502.238 290.559 501.278 290.559C500.402 290.559 499.622 290.355 498.938 289.947C498.254 289.539 497.714 288.957 497.318 288.201C496.934 287.433 496.742 286.533 496.742 285.501C496.742 284.469 496.934 283.569 497.318 282.801C497.714 282.033 498.254 281.445 498.938 281.037C499.622 280.629 500.402 280.425 501.278 280.425ZM501.746 281.883C500.738 281.883 499.928 282.207 499.316 282.855C498.716 283.491 498.416 284.373 498.416 285.501C498.416 286.629 498.716 287.517 499.316 288.165C499.928 288.801 500.738 289.119 501.746 289.119C502.394 289.119 502.97 288.969 503.474 288.669C503.99 288.369 504.392 287.949 504.68 287.409C504.968 286.857 505.112 286.221 505.112 285.501C505.112 284.781 504.968 284.145 504.68 283.593C504.392 283.041 503.99 282.621 503.474 282.333C502.97 282.033 502.394 281.883 501.746 281.883ZM510.995 277.113V290.433H509.357V277.113H510.995ZM515.266 277.113V290.433H513.628V277.113H515.266ZM518.584 280.551L521.788 288.327L524.758 280.551H526.576L520.708 295.113H518.854L520.906 290.271L516.748 280.551H518.584ZM534.163 277.113V290.433H532.525V277.113H534.163ZM541.278 280.425C542.226 280.425 543.072 280.629 543.816 281.037C544.572 281.445 545.16 282.033 545.58 282.801C546.012 283.569 546.228 284.469 546.228 285.501C546.228 286.533 546.012 287.433 545.58 288.201C545.16 288.957 544.572 289.539 543.816 289.947C543.072 290.355 542.226 290.559 541.278 290.559C540.33 290.559 539.478 290.355 538.722 289.947C537.978 289.539 537.39 288.957 536.958 288.201C536.526 287.433 536.31 286.533 536.31 285.501C536.31 284.469 536.526 283.569 536.958 282.801C537.39 282.033 537.978 281.445 538.722 281.037C539.478 280.629 540.33 280.425 541.278 280.425ZM541.278 281.865C540.69 281.865 540.144 281.997 539.64 282.261C539.148 282.525 538.746 282.933 538.434 283.485C538.134 284.025 537.984 284.697 537.984 285.501C537.984 286.293 538.134 286.965 538.434 287.517C538.746 288.057 539.148 288.459 539.64 288.723C540.144 288.987 540.69 289.119 541.278 289.119C541.866 289.119 542.406 288.987 542.898 288.723C543.402 288.459 543.804 288.057 544.104 287.517C544.416 286.965 544.572 286.293 544.572 285.501C544.572 284.697 544.416 284.025 544.104 283.485C543.804 282.933 543.402 282.525 542.898 282.261C542.406 281.997 541.866 281.865 541.278 281.865ZM552.197 288.687L555.257 280.551H557.021L553.151 290.433H551.207L547.337 280.551H549.101L552.197 288.687ZM567.718 284.943C567.718 285.291 567.694 285.591 567.646 285.843H559.744C559.78 286.971 560.098 287.817 560.698 288.381C561.31 288.945 562.054 289.227 562.93 289.227C563.722 289.227 564.382 289.029 564.91 288.633C565.45 288.225 565.78 287.685 565.9 287.013H567.646C567.526 287.697 567.256 288.309 566.836 288.849C566.428 289.389 565.894 289.809 565.234 290.109C564.574 290.409 563.83 290.559 563.002 290.559C562.054 290.559 561.214 290.355 560.482 289.947C559.75 289.539 559.174 288.957 558.754 288.201C558.346 287.433 558.142 286.533 558.142 285.501C558.142 284.469 558.346 283.569 558.754 282.801C559.174 282.033 559.75 281.445 560.482 281.037C561.214 280.629 562.054 280.425 563.002 280.425C563.962 280.425 564.796 280.629 565.504 281.037C566.224 281.445 566.77 281.991 567.142 282.675C567.526 283.359 567.718 284.115 567.718 284.943ZM566.062 285.051C566.098 284.319 565.978 283.707 565.702 283.215C565.426 282.723 565.048 282.357 564.568 282.117C564.088 281.877 563.566 281.757 563.002 281.757C562.102 281.757 561.346 282.039 560.734 282.603C560.122 283.155 559.792 283.971 559.744 285.051H566.062ZM579.024 288.993V290.433H577.8C576.792 290.433 576.036 290.193 575.532 289.713C575.04 289.233 574.794 288.429 574.794 287.301V281.973H573.318V280.551H574.794V278.085H576.45V280.551H579.006V281.973H576.45V287.337C576.45 287.973 576.564 288.411 576.792 288.651C577.032 288.879 577.44 288.993 578.016 288.993H579.024ZM585.505 280.425C586.453 280.425 587.299 280.629 588.043 281.037C588.799 281.445 589.387 282.033 589.807 282.801C590.239 283.569 590.455 284.469 590.455 285.501C590.455 286.533 590.239 287.433 589.807 288.201C589.387 288.957 588.799 289.539 588.043 289.947C587.299 290.355 586.453 290.559 585.505 290.559C584.557 290.559 583.705 290.355 582.949 289.947C582.205 289.539 581.617 288.957 581.185 288.201C580.753 287.433 580.537 286.533 580.537 285.501C580.537 284.469 580.753 283.569 581.185 282.801C581.617 282.033 582.205 281.445 582.949 281.037C583.705 280.629 584.557 280.425 585.505 280.425ZM585.505 281.865C584.917 281.865 584.371 281.997 583.867 282.261C583.375 282.525 582.973 282.933 582.661 283.485C582.361 284.025 582.211 284.697 582.211 285.501C582.211 286.293 582.361 286.965 582.661 287.517C582.973 288.057 583.375 288.459 583.867 288.723C584.371 288.987 584.917 289.119 585.505 289.119C586.093 289.119 586.633 288.987 587.125 288.723C587.629 288.459 588.031 288.057 588.331 287.517C588.643 286.965 588.799 286.293 588.799 285.501C588.799 284.697 588.643 284.025 588.331 283.485C588.031 282.933 587.629 282.525 587.125 282.261C586.633 281.997 586.093 281.865 585.505 281.865ZM602.239 280.389C603.391 280.389 604.321 280.761 605.029 281.505C605.737 282.237 606.091 283.299 606.091 284.691V290.433H604.453V284.835C604.453 283.851 604.201 283.095 603.697 282.567C603.193 282.039 602.509 281.775 601.645 281.775C600.745 281.775 600.025 282.069 599.485 282.657C598.945 283.233 598.675 284.079 598.675 285.195V290.433H597.037V277.113H598.675V282.891C598.927 282.087 599.371 281.469 600.007 281.037C600.655 280.605 601.399 280.389 602.239 280.389ZM617.693 284.943C617.693 285.291 617.669 285.591 617.621 285.843H609.719C609.755 286.971 610.073 287.817 610.673 288.381C611.285 288.945 612.029 289.227 612.905 289.227C613.697 289.227 614.357 289.029 614.885 288.633C615.425 288.225 615.755 287.685 615.875 287.013H617.621C617.501 287.697 617.231 288.309 616.811 288.849C616.403 289.389 615.869 289.809 615.209 290.109C614.549 290.409 613.805 290.559 612.977 290.559C612.029 290.559 611.189 290.355 610.457 289.947C609.725 289.539 609.149 288.957 608.729 288.201C608.321 287.433 608.117 286.533 608.117 285.501C608.117 284.469 608.321 283.569 608.729 282.801C609.149 282.033 609.725 281.445 610.457 281.037C611.189 280.629 612.029 280.425 612.977 280.425C613.937 280.425 614.771 280.629 615.479 281.037C616.199 281.445 616.745 281.991 617.117 282.675C617.501 283.359 617.693 284.115 617.693 284.943ZM616.037 285.051C616.073 284.319 615.953 283.707 615.677 283.215C615.401 282.723 615.023 282.357 614.543 282.117C614.063 281.877 613.541 281.757 612.977 281.757C612.077 281.757 611.321 282.039 610.709 282.603C610.097 283.155 609.767 283.971 609.719 285.051H616.037ZM623.885 280.425C624.845 280.425 625.655 280.665 626.315 281.145C626.987 281.625 627.455 282.267 627.719 283.071V280.551H629.357V290.433H627.719V287.913C627.455 288.717 626.987 289.359 626.315 289.839C625.655 290.319 624.845 290.559 623.885 290.559C623.009 290.559 622.229 290.355 621.545 289.947C620.861 289.539 620.321 288.957 619.925 288.201C619.541 287.433 619.349 286.533 619.349 285.501C619.349 284.469 619.541 283.569 619.925 282.801C620.321 282.033 620.861 281.445 621.545 281.037C622.229 280.629 623.009 280.425 623.885 280.425ZM624.353 281.883C623.345 281.883 622.535 282.207 621.923 282.855C621.323 283.491 621.023 284.373 621.023 285.501C621.023 286.629 621.323 287.517 621.923 288.165C622.535 288.801 623.345 289.119 624.353 289.119C625.001 289.119 625.577 288.969 626.081 288.669C626.597 288.369 626.999 287.949 627.287 287.409C627.575 286.857 627.719 286.221 627.719 285.501C627.719 284.781 627.575 284.145 627.287 283.593C626.999 283.041 626.597 282.621 626.081 282.333C625.577 282.033 625.001 281.883 624.353 281.883ZM633.602 282.549C633.926 281.865 634.4 281.337 635.024 280.965C635.648 280.581 636.392 280.389 637.256 280.389V282.171H636.752C635.828 282.171 635.072 282.411 634.484 282.891C633.896 283.359 633.602 284.139 633.602 285.231V290.433H631.964V280.551H633.602V282.549ZM647.694 278.211C646.818 278.199 646.206 278.349 645.858 278.661C645.522 278.973 645.354 279.513 645.354 280.281V280.551H647.694V281.991H645.354V290.433H643.716V281.991H642.294V280.551H643.716V280.155C643.716 277.791 645.042 276.663 647.694 276.771V278.211ZM651.11 282.549C651.434 281.865 651.908 281.337 652.532 280.965C653.156 280.581 653.9 280.389 654.764 280.389V282.171H654.26C653.336 282.171 652.58 282.411 651.992 282.891C651.404 283.359 651.11 284.139 651.11 285.231V290.433H649.472V280.551H651.11V282.549ZM660.862 280.425C661.81 280.425 662.656 280.629 663.4 281.037C664.156 281.445 664.744 282.033 665.164 282.801C665.596 283.569 665.812 284.469 665.812 285.501C665.812 286.533 665.596 287.433 665.164 288.201C664.744 288.957 664.156 289.539 663.4 289.947C662.656 290.355 661.81 290.559 660.862 290.559C659.914 290.559 659.062 290.355 658.306 289.947C657.562 289.539 656.974 288.957 656.542 288.201C656.11 287.433 655.894 286.533 655.894 285.501C655.894 284.469 656.11 283.569 656.542 282.801C656.974 282.033 657.562 281.445 658.306 281.037C659.062 280.629 659.914 280.425 660.862 280.425ZM660.862 281.865C660.274 281.865 659.728 281.997 659.224 282.261C658.732 282.525 658.33 282.933 658.018 283.485C657.718 284.025 657.568 284.697 657.568 285.501C657.568 286.293 657.718 286.965 658.018 287.517C658.33 288.057 658.732 288.459 659.224 288.723C659.728 288.987 660.274 289.119 660.862 289.119C661.45 289.119 661.99 288.987 662.482 288.723C662.986 288.459 663.388 288.057 663.688 287.517C664 286.965 664.156 286.293 664.156 285.501C664.156 284.697 664 284.025 663.688 283.485C663.388 282.933 662.986 282.525 662.482 282.261C661.99 281.997 661.45 281.865 660.862 281.865ZM680.097 280.389C681.249 280.389 682.173 280.761 682.869 281.505C683.577 282.237 683.931 283.299 683.931 284.691V290.433H682.293V284.835C682.293 283.863 682.053 283.119 681.573 282.603C681.105 282.087 680.457 281.829 679.629 281.829C678.765 281.829 678.069 282.117 677.541 282.693C677.025 283.257 676.767 284.091 676.767 285.195V290.433H675.129V284.835C675.129 283.863 674.889 283.119 674.409 282.603C673.929 282.087 673.281 281.829 672.465 281.829C671.589 281.829 670.887 282.117 670.359 282.693C669.843 283.257 669.585 284.091 669.585 285.195V290.433H667.947V280.551H669.585V282.801C669.825 282.021 670.251 281.427 670.863 281.019C671.487 280.599 672.201 280.389 673.005 280.389C673.845 280.389 674.571 280.605 675.183 281.037C675.807 281.457 676.251 282.081 676.515 282.909C676.791 282.105 677.253 281.487 677.901 281.055C678.549 280.611 679.281 280.389 680.097 280.389ZM691.605 280.551L694.809 288.327L697.779 280.551H699.597L693.729 295.113H691.875L693.927 290.271L689.769 280.551H691.605ZM705.581 280.425C706.529 280.425 707.375 280.629 708.119 281.037C708.875 281.445 709.463 282.033 709.883 282.801C710.315 283.569 710.531 284.469 710.531 285.501C710.531 286.533 710.315 287.433 709.883 288.201C709.463 288.957 708.875 289.539 708.119 289.947C707.375 290.355 706.529 290.559 705.581 290.559C704.633 290.559 703.781 290.355 703.025 289.947C702.281 289.539 701.693 288.957 701.261 288.201C700.829 287.433 700.613 286.533 700.613 285.501C700.613 284.469 700.829 283.569 701.261 282.801C701.693 282.033 702.281 281.445 703.025 281.037C703.781 280.629 704.633 280.425 705.581 280.425ZM705.581 281.865C704.993 281.865 704.447 281.997 703.943 282.261C703.451 282.525 703.049 282.933 702.737 283.485C702.437 284.025 702.287 284.697 702.287 285.501C702.287 286.293 702.437 286.965 702.737 287.517C703.049 288.057 703.451 288.459 703.943 288.723C704.447 288.987 704.993 289.119 705.581 289.119C706.169 289.119 706.709 288.987 707.201 288.723C707.705 288.459 708.107 288.057 708.407 287.517C708.719 286.965 708.875 286.293 708.875 285.501C708.875 284.697 708.719 284.025 708.407 283.485C708.107 282.933 707.705 282.525 707.201 282.261C706.709 281.997 706.169 281.865 705.581 281.865ZM721.45 280.551V290.433H719.812V288.111C719.56 288.915 719.11 289.533 718.462 289.965C717.826 290.385 717.082 290.595 716.23 290.595C715.09 290.595 714.166 290.229 713.458 289.497C712.75 288.753 712.396 287.691 712.396 286.311V280.551H714.034V286.149C714.034 287.133 714.286 287.895 714.79 288.435C715.294 288.963 715.978 289.227 716.842 289.227C717.742 289.227 718.462 288.939 719.002 288.363C719.542 287.775 719.812 286.923 719.812 285.807V280.551H721.45Z" fill="white"/>
<path d="M495.386 341.991C493.862 341.991 492.602 341.637 491.606 340.929C490.622 340.209 490.088 339.159 490.004 337.779H494.252C494.312 338.511 494.636 338.877 495.224 338.877C495.44 338.877 495.62 338.829 495.764 338.733C495.92 338.625 495.998 338.463 495.998 338.247C495.998 337.947 495.836 337.707 495.512 337.527C495.188 337.335 494.684 337.119 494 336.879C493.184 336.591 492.506 336.309 491.966 336.033C491.438 335.757 490.982 335.355 490.598 334.827C490.214 334.299 490.028 333.621 490.04 332.793C490.04 331.965 490.25 331.263 490.67 330.687C491.102 330.099 491.684 329.655 492.416 329.355C493.16 329.055 493.994 328.905 494.918 328.905C496.478 328.905 497.714 329.265 498.626 329.985C499.55 330.705 500.036 331.719 500.084 333.027H495.782C495.77 332.667 495.68 332.409 495.512 332.253C495.344 332.097 495.14 332.019 494.9 332.019C494.732 332.019 494.594 332.079 494.486 332.199C494.378 332.307 494.324 332.463 494.324 332.667C494.324 332.955 494.48 333.195 494.792 333.387C495.116 333.567 495.626 333.789 496.322 334.053C497.126 334.353 497.786 334.641 498.302 334.917C498.83 335.193 499.286 335.577 499.67 336.069C500.054 336.561 500.246 337.179 500.246 337.923C500.246 338.703 500.054 339.405 499.67 340.029C499.286 340.641 498.728 341.121 497.996 341.469C497.264 341.817 496.394 341.991 495.386 341.991ZM505.646 332.307V333.873H509.606V336.879H505.646V338.679H510.146V341.865H501.65V329.121H510.146V332.307H505.646ZM523.874 341.865H519.878L515.648 335.457V341.865H511.652V329.121H515.648L519.878 335.637V329.121H523.874V341.865ZM530.989 329.121C532.321 329.121 533.485 329.391 534.481 329.931C535.489 330.471 536.263 331.221 536.803 332.181C537.343 333.141 537.613 334.233 537.613 335.457C537.613 336.669 537.343 337.761 536.803 338.733C536.263 339.705 535.489 340.473 534.481 341.037C533.485 341.589 532.321 341.865 530.989 341.865H525.679V329.121H530.989ZM530.629 338.301C531.529 338.301 532.243 338.055 532.771 337.563C533.299 337.071 533.563 336.369 533.563 335.457C533.563 334.545 533.299 333.843 532.771 333.351C532.243 332.859 531.529 332.613 530.629 332.613H529.675V338.301H530.629ZM551.115 329.121V332.289H546.111V334.053H549.711V337.059H546.111V341.865H542.115V329.121H551.115ZM556.464 332.307V333.873H560.424V336.879H556.464V338.679H560.964V341.865H552.468V329.121H560.964V332.307H556.464ZM566.466 332.307V333.873H570.426V336.879H566.466V338.679H570.966V341.865H562.47V329.121H570.966V332.307H566.466ZM577.782 329.121C579.114 329.121 580.278 329.391 581.274 329.931C582.282 330.471 583.056 331.221 583.596 332.181C584.136 333.141 584.406 334.233 584.406 335.457C584.406 336.669 584.136 337.761 583.596 338.733C583.056 339.705 582.282 340.473 581.274 341.037C580.278 341.589 579.114 341.865 577.782 341.865H572.472V329.121H577.782ZM577.422 338.301C578.322 338.301 579.036 338.055 579.564 337.563C580.092 337.071 580.356 336.369 580.356 335.457C580.356 334.545 580.092 333.843 579.564 333.351C579.036 332.859 578.322 332.613 577.422 332.613H576.468V338.301H577.422ZM594.381 335.331C595.149 335.511 595.743 335.883 596.163 336.447C596.595 336.999 596.811 337.641 596.811 338.373C596.811 339.489 596.439 340.353 595.695 340.965C594.963 341.565 593.907 341.865 592.527 341.865H585.849V329.121H592.347C593.643 329.121 594.663 329.403 595.407 329.967C596.151 330.531 596.523 331.353 596.523 332.433C596.523 333.177 596.325 333.807 595.929 334.323C595.545 334.827 595.029 335.163 594.381 335.331ZM589.845 334.089H591.393C591.753 334.089 592.017 334.017 592.185 333.873C592.365 333.729 592.455 333.507 592.455 333.207C592.455 332.895 592.365 332.667 592.185 332.523C592.017 332.367 591.753 332.289 591.393 332.289H589.845V334.089ZM591.663 338.661C592.023 338.661 592.287 338.595 592.455 338.463C592.635 338.319 592.725 338.091 592.725 337.779C592.725 337.167 592.371 336.861 591.663 336.861H589.845V338.661H591.663ZM606.326 339.939H602.078L601.448 341.865H597.254L601.916 329.121H606.524L611.168 341.865H606.956L606.326 339.939ZM605.354 336.933L604.202 333.387L603.05 336.933H605.354ZM611.716 335.475C611.716 334.215 611.968 333.093 612.472 332.109C612.988 331.125 613.72 330.363 614.668 329.823C615.616 329.271 616.732 328.995 618.016 328.995C619.12 328.995 620.104 329.205 620.968 329.625C621.844 330.033 622.552 330.615 623.092 331.371C623.644 332.127 624.01 333.009 624.19 334.017H619.978C619.786 333.597 619.51 333.273 619.15 333.045C618.802 332.805 618.4 332.685 617.944 332.685C617.272 332.685 616.738 332.937 616.342 333.441C615.958 333.945 615.766 334.623 615.766 335.475C615.766 336.327 615.958 337.005 616.342 337.509C616.738 338.013 617.272 338.265 617.944 338.265C618.4 338.265 618.802 338.151 619.15 337.923C619.51 337.683 619.786 337.353 619.978 336.933H624.19C624.01 337.941 623.644 338.823 623.092 339.579C622.552 340.335 621.844 340.923 620.968 341.343C620.104 341.751 619.12 341.955 618.016 341.955C616.732 341.955 615.616 341.685 614.668 341.145C613.72 340.593 612.988 339.825 612.472 338.841C611.968 337.857 611.716 336.735 611.716 335.475ZM633.333 341.865L629.625 336.339V341.865H625.629V329.121H629.625V334.485L633.279 329.121H637.797L633.405 335.223L638.085 341.865H633.333Z" fill="#FCF4E1"/>
<path d="M654.5 329.365L661.5 336.329L654.5 342.365" stroke="#FCF4E1" stroke-width="2" stroke-linecap="round"/>
</g>
</svg>
