<svg width="466" height="36" viewBox="0 0 466 36" fill="none" xmlns="http://www.w3.org/2000/svg">
<path d="M18.4521 0.745605C21.6521 0.745605 24.5801 1.4976 27.2361 3.0016C29.8921 4.4736 31.9881 6.5376 33.5241 9.1936C35.0921 11.8496 35.8761 14.8416 35.8761 18.1696C35.8761 21.4976 35.0921 24.4896 33.5241 27.1456C31.9881 29.8016 29.8761 31.8816 27.1881 33.3856C24.5321 34.8896 21.6201 35.6416 18.4521 35.6416C15.2521 35.6416 12.3081 34.8896 9.62013 33.3856C6.96413 31.8816 4.85213 29.8016 3.28413 27.1456C1.71613 24.4896 0.932129 21.4976 0.932129 18.1696C0.932129 14.8416 1.71613 11.8496 3.28413 9.1936C4.85213 6.5376 6.96413 4.4736 9.62013 3.0016C12.3081 1.4976 15.2521 0.745605 18.4521 0.745605ZM18.4521 10.5856C16.3081 10.5856 14.6601 11.2736 13.5081 12.6496C12.3561 13.9936 11.7801 15.8336 11.7801 18.1696C11.7801 20.4736 12.3561 22.3136 13.5081 23.6896C14.6601 25.0336 16.3081 25.7056 18.4521 25.7056C20.5641 25.7056 22.1961 25.0336 23.3481 23.6896C24.5001 22.3136 25.0761 20.4736 25.0761 18.1696C25.0761 15.8336 24.5001 13.9936 23.3481 12.6496C22.1961 11.2736 20.5641 10.5856 18.4521 10.5856Z" fill="white"/>
<path d="M50.1363 1.3216V20.4736C50.1363 22.0416 50.4722 23.2896 51.1442 24.2176C51.8482 25.1136 52.9683 25.5616 54.5042 25.5616C56.0402 25.5616 57.1763 25.1136 57.9123 24.2176C58.6483 23.2896 59.0163 22.0416 59.0163 20.4736V1.3216H69.6243V20.4736C69.6243 23.7056 68.9523 26.4736 67.6083 28.7776C66.2643 31.0496 64.4243 32.7616 62.0883 33.9136C59.7523 35.0656 57.1443 35.6416 54.2643 35.6416C51.3843 35.6416 48.8243 35.0656 46.5843 33.9136C44.3763 32.7616 42.6483 31.0496 41.4003 28.7776C40.1523 26.5056 39.5283 23.7376 39.5283 20.4736V1.3216H50.1363Z" fill="white"/>
<path d="M91.3083 35.3056L84.8763 23.1136V35.3056H74.2203V1.3216H90.0602C92.8122 1.3216 95.1642 1.8176 97.1162 2.8096C99.0683 3.7696 100.524 5.0976 101.484 6.7936C102.476 8.4576 102.972 10.3456 102.972 12.4576C102.972 14.7296 102.332 16.7456 101.052 18.5056C99.8043 20.2656 97.9963 21.5296 95.6283 22.2976L103.02 35.3056H91.3083ZM84.8763 16.0096H89.1003C90.1243 16.0096 90.8923 15.7856 91.4043 15.3376C91.9163 14.8576 92.1723 14.1216 92.1723 13.1296C92.1723 12.2336 91.9003 11.5296 91.3563 11.0176C90.8443 10.5056 90.0923 10.2496 89.1003 10.2496H84.8763V16.0096Z" fill="white"/>
<path d="M130.373 0.985603C133.317 0.985603 135.941 1.5456 138.245 2.6656C140.581 3.7536 142.469 5.3056 143.909 7.3216C145.381 9.3376 146.357 11.6896 146.837 14.3776H135.605C135.093 13.2576 134.357 12.3936 133.397 11.7856C132.469 11.1456 131.397 10.8256 130.181 10.8256C128.389 10.8256 126.965 11.4976 125.909 12.8416C124.885 14.1856 124.373 15.9936 124.373 18.2656C124.373 20.5376 124.885 22.3456 125.909 23.6896C126.965 25.0336 128.389 25.7056 130.181 25.7056C131.397 25.7056 132.469 25.4016 133.397 24.7936C134.357 24.1536 135.093 23.2736 135.605 22.1536H146.837C146.357 24.8416 145.381 27.1936 143.909 29.2096C142.469 31.2256 140.581 32.7936 138.245 33.9136C135.941 35.0016 133.317 35.5456 130.373 35.5456C126.949 35.5456 123.973 34.8256 121.445 33.3856C118.917 31.9136 116.965 29.8656 115.589 27.2416C114.245 24.6176 113.573 21.6256 113.573 18.2656C113.573 14.9056 114.245 11.9136 115.589 9.2896C116.965 6.6656 118.917 4.6336 121.445 3.1936C123.973 1.7216 126.949 0.985603 130.373 0.985603Z" fill="white"/>
<path d="M167.233 0.745605C170.433 0.745605 173.361 1.4976 176.017 3.0016C178.673 4.4736 180.769 6.5376 182.305 9.1936C183.873 11.8496 184.657 14.8416 184.657 18.1696C184.657 21.4976 183.873 24.4896 182.305 27.1456C180.769 29.8016 178.657 31.8816 175.969 33.3856C173.313 34.8896 170.401 35.6416 167.233 35.6416C164.033 35.6416 161.089 34.8896 158.401 33.3856C155.745 31.8816 153.633 29.8016 152.065 27.1456C150.497 24.4896 149.713 21.4976 149.713 18.1696C149.713 14.8416 150.497 11.8496 152.065 9.1936C153.633 6.5376 155.745 4.4736 158.401 3.0016C161.089 1.4976 164.033 0.745605 167.233 0.745605ZM167.233 10.5856C165.089 10.5856 163.441 11.2736 162.289 12.6496C161.137 13.9936 160.561 15.8336 160.561 18.1696C160.561 20.4736 161.137 22.3136 162.289 23.6896C163.441 25.0336 165.089 25.7056 167.233 25.7056C169.345 25.7056 170.977 25.0336 172.129 23.6896C173.281 22.3136 173.857 20.4736 173.857 18.1696C173.857 15.8336 173.281 13.9936 172.129 12.6496C170.977 11.2736 169.345 10.5856 167.233 10.5856Z" fill="white"/>
<path d="M229.35 1.3216V35.3056H218.742V18.3616L213.51 35.3056H204.389L199.158 18.3616V35.3056H188.501V1.3216H201.557L209.046 21.7216L216.342 1.3216H229.35Z" fill="white"/>
<path d="M275.006 1.3216V35.3056H264.398V18.3616L259.166 35.3056H250.046L244.814 18.3616V35.3056H234.158V1.3216H247.214L254.702 21.7216L261.998 1.3216H275.006Z" fill="white"/>
<path d="M290.23 1.3216V20.4736C290.23 22.0416 290.566 23.2896 291.238 24.2176C291.942 25.1136 293.062 25.5616 294.598 25.5616C296.134 25.5616 297.27 25.1136 298.006 24.2176C298.742 23.2896 299.11 22.0416 299.11 20.4736V1.3216H309.718V20.4736C309.718 23.7056 309.046 26.4736 307.702 28.7776C306.358 31.0496 304.518 32.7616 302.182 33.9136C299.846 35.0656 297.238 35.6416 294.358 35.6416C291.478 35.6416 288.918 35.0656 286.678 33.9136C284.47 32.7616 282.742 31.0496 281.494 28.7776C280.246 26.5056 279.622 23.7376 279.622 20.4736V1.3216H290.23Z" fill="white"/>
<path d="M346.906 35.3056H336.25L324.97 18.2176V35.3056H314.314V1.3216H324.97L336.25 18.6976V1.3216H346.906V35.3056Z" fill="white"/>
<path d="M362.376 1.3216V35.3056H351.72V1.3216H362.376Z" fill="white"/>
<path d="M393.877 1.3216V9.7696H384.853V35.3056H374.197V9.7696H365.269V1.3216H393.877Z" fill="white"/>
<path d="M407.423 1.3216V35.3056H396.767V1.3216H407.423Z" fill="white"/>
<path d="M465.164 25.2736C465.164 27.2256 464.652 28.9856 463.628 30.5536C462.636 32.1216 461.18 33.3696 459.26 34.2976C457.34 35.1936 455.052 35.6416 452.396 35.6416C448.332 35.6416 444.972 34.6976 442.316 32.8096C439.692 30.8896 438.268 28.0896 438.044 24.4096H449.372C449.532 26.3616 450.396 27.3376 451.964 27.3376C452.508 27.3376 452.94 27.1936 453.26 26.9056C453.612 26.6176 453.788 26.2016 453.788 25.6576C453.788 24.8576 453.372 24.2336 452.54 23.7856C451.74 23.3056 450.428 22.7616 448.604 22.1536C446.46 21.4496 444.668 20.7296 443.228 19.9936C441.82 19.2576 440.588 18.1696 439.532 16.7296C438.476 15.2896 437.948 13.4176 437.948 11.1136C437.948 8.9056 438.508 7.03361 439.628 5.4976C440.78 3.92961 442.332 2.7456 444.284 1.9456C446.268 1.1456 448.492 0.745605 450.956 0.745605C455.02 0.745605 458.252 1.68961 460.652 3.57761C463.052 5.4656 464.364 8.1856 464.588 11.7376H453.116C452.956 9.9456 452.22 9.0496 450.908 9.0496C450.46 9.0496 450.092 9.1936 449.804 9.4816C449.516 9.7376 449.372 10.1376 449.372 10.6816C449.372 11.4176 449.772 12.0256 450.572 12.5056C451.404 12.9536 452.684 13.4816 454.412 14.0896C456.588 14.8576 458.38 15.6256 459.788 16.3936C461.228 17.1296 462.476 18.2336 463.532 19.7056C464.62 21.1456 465.164 23.0016 465.164 25.2736Z" fill="white"/>
</svg>
