<svg width="459" height="48" viewBox="0 0 459 48" fill="none" xmlns="http://www.w3.org/2000/svg">
<path d="M23.9848 47.5333L15.0765 30.6473V47.5333H0.317871V0.465363H22.2563C26.0678 0.465363 29.3254 1.15232 32.0289 2.52624C34.7324 3.85585 36.749 5.69513 38.0786 8.04409C39.4525 10.3487 40.1395 12.9636 40.1395 15.8887C40.1395 19.0355 39.2531 21.8276 37.4803 24.2652C35.7518 26.7028 33.2477 28.4535 29.968 29.5172L40.2059 47.5333H23.9848ZM15.0765 20.8083H20.9267C22.3449 20.8083 23.4086 20.498 24.1177 19.8776C24.8269 19.2128 25.1814 18.1934 25.1814 16.8195C25.1814 15.5785 24.8047 14.6035 24.0513 13.8943C23.3422 13.1852 22.3006 12.8307 20.9267 12.8307H15.0765V20.8083Z" fill="white"/>
<path d="M96.5535 0.465363V47.5333H81.7949V0.465363H96.5535Z" fill="white"/>
<path d="M159.794 0.465363V47.5333H145.102V24.0658L137.855 47.5333H125.224L117.978 24.0658V47.5333H103.219V0.465363H121.302L131.673 28.7194L141.778 0.465363H159.794Z" fill="white"/>
<path d="M196.635 40.4199H180.946L178.619 47.5333H163.129L180.348 0.465363H197.366L214.518 47.5333H198.962L196.635 40.4199ZM193.045 29.3177L188.791 16.2211L184.536 29.3177H193.045Z" fill="white"/>
<path d="M240.342 0C246.502 0 251.51 1.48472 255.366 4.45417C259.266 7.42361 261.571 11.4567 262.28 16.5535H246.724C246.148 15.6228 245.328 14.9137 244.264 14.4262C243.2 13.8943 241.915 13.6284 240.408 13.6284C237.572 13.6284 235.378 14.5591 233.827 16.4206C232.275 18.2377 231.5 20.7418 231.5 23.9328C231.5 27.6114 232.364 30.3592 234.093 32.1764C235.821 33.9935 238.48 34.9021 242.07 34.9021C245.483 34.9021 248.231 33.5281 250.314 30.7803H238.547V20.3429H262.546V35.1015C260.507 38.6028 257.693 41.6165 254.103 44.1428C250.513 46.6247 245.97 47.8657 240.475 47.8657C235.599 47.8657 231.345 46.8685 227.71 44.8741C224.121 42.8354 221.351 39.9989 219.4 36.3646C217.495 32.7304 216.542 28.5864 216.542 23.9328C216.542 19.2792 217.495 15.1353 219.4 11.5011C221.351 7.86681 224.121 5.05249 227.71 3.05809C231.3 1.01936 235.511 0 240.342 0Z" fill="white"/>
<path d="M282.62 0.465363V47.5333H267.861V0.465363H282.62Z" fill="white"/>
<path d="M334.426 47.5333H319.667L304.044 23.8664V47.5333H289.286V0.465363H304.044L319.667 24.5312V0.465363H334.426V47.5333Z" fill="white"/>
<path d="M355.852 0.465363V47.5333H341.093V0.465363H355.852Z" fill="white"/>
<path d="M407.658 47.5333H392.899L377.276 23.8664V47.5333H362.518V0.465363H377.276L392.899 24.5312V0.465363H407.658V47.5333Z" fill="white"/>
<path d="M436.796 0C442.956 0 447.964 1.48472 451.82 4.45417C455.72 7.42361 458.025 11.4567 458.734 16.5535H443.178C442.602 15.6228 441.782 14.9137 440.718 14.4262C439.654 13.8943 438.369 13.6284 436.862 13.6284C434.026 13.6284 431.832 14.5591 430.281 16.4206C428.729 18.2377 427.954 20.7418 427.954 23.9328C427.954 27.6114 428.818 30.3592 430.547 32.1764C432.275 33.9935 434.934 34.9021 438.524 34.9021C441.937 34.9021 444.685 33.5281 446.768 30.7803H435.001V20.3429H459V35.1015C456.961 38.6028 454.147 41.6165 450.557 44.1428C446.967 46.6247 442.424 47.8657 436.929 47.8657C432.053 47.8657 427.799 46.8685 424.164 44.8741C420.574 42.8354 417.804 39.9989 415.854 36.3646C413.949 32.7304 412.996 28.5864 412.996 23.9328C412.996 19.2792 413.949 15.1353 415.854 11.5011C417.804 7.86681 420.574 5.05249 424.164 3.05809C427.754 1.01936 431.965 0 436.796 0Z" fill="white"/>
</svg>
