<svg width="20" height="20" viewBox="0 0 20 20" fill="none" xmlns="http://www.w3.org/2000/svg">
<path fill-rule="evenodd" clip-rule="evenodd" d="M13.2069 14.886C11.8087 15.9794 10.0849 16.5736 8.30994 16.574C3.89894 16.574 0.309937 12.985 0.309937 8.57397C0.309937 4.16297 3.89894 0.573975 8.30994 0.573975C12.7209 0.573975 16.3099 4.16297 16.3099 8.57397C16.3095 10.3494 15.7149 12.0736 14.6209 13.472L19.0169 17.868L17.6029 19.282L13.2069 14.886ZM14.3099 8.57397C14.3099 5.26497 11.6189 2.57397 8.30994 2.57397C5.00094 2.57397 2.30994 5.26497 2.30994 8.57397C2.30994 11.883 5.00094 14.574 8.30994 14.574C11.6189 14.574 14.3099 11.883 14.3099 8.57397ZM10.3098 8.57406C10.3098 8.04206 10.1008 7.54006 9.72176 7.16006C8.96576 6.40606 7.65577 6.40406 6.89577 7.16206L5.48376 5.74606C6.99676 4.23406 9.62177 4.23406 11.1358 5.74606C11.5086 6.11649 11.8043 6.55714 12.0058 7.04255C12.2074 7.52795 12.3106 8.04849 12.3098 8.57406H10.3098Z" fill="white"/>
</svg>
