<svg width="557" height="324" viewBox="0 0 557 324" fill="none" xmlns="http://www.w3.org/2000/svg">
<path opacity="0.4" fill-rule="evenodd" clip-rule="evenodd" d="M556 282.891C556 438.42 431.745 564.477 278.5 564.477C125.255 564.477 1 438.42 1 282.891C1 127.362 125.255 1.30566 278.5 1.30566C431.745 1.30566 556 127.362 556 282.891ZM557 282.891C557 438.959 432.311 565.477 278.5 565.477C124.689 565.477 0 438.959 0 282.891C0 126.824 124.689 0.305664 278.5 0.305664C432.311 0.305664 557 126.824 557 282.891ZM278.5 493.45C393.085 493.45 486 399.193 486 282.891C486 166.589 393.085 72.3325 278.5 72.3325C163.915 72.3325 71 166.589 71 282.891C71 399.193 163.915 493.45 278.5 493.45ZM278.5 494.45C393.651 494.45 487 399.732 487 282.891C487 166.051 393.651 71.3325 278.5 71.3325C163.349 71.3325 70 166.051 70 282.891C70 399.732 163.349 494.45 278.5 494.45ZM278.5 423.438C354.978 423.438 417 360.527 417 282.891C417 205.256 354.978 142.345 278.5 142.345C202.022 142.345 140 205.256 140 282.891C140 360.527 202.022 423.438 278.5 423.438ZM278.5 424.438C355.544 424.438 418 361.065 418 282.891C418 204.717 355.544 141.345 278.5 141.345C201.456 141.345 139 204.717 139 282.891C139 361.065 201.456 424.438 278.5 424.438Z" fill="#ECBA41"/>
</svg>
